<svg width="19" height="19" viewBox="0 0 19 19" fill="none" xmlns="http://www.w3.org/2000/svg">
<path fill-rule="evenodd" clip-rule="evenodd" d="M4.08301 4.49609C3.66879 4.49609 3.33301 4.83188 3.33301 5.24609V15.7461C3.33301 16.1603 3.66879 16.4961 4.08301 16.4961H14.583C14.9972 16.4961 15.333 16.1603 15.333 15.7461V5.24609C15.333 4.83188 14.9972 4.49609 14.583 4.49609H4.08301ZM1.83301 5.24609C1.83301 4.00345 2.84037 2.99609 4.08301 2.99609H14.583C15.8256 2.99609 16.833 4.00345 16.833 5.24609V15.7461C16.833 16.9887 15.8256 17.9961 14.583 17.9961H4.08301C2.84037 17.9961 1.83301 16.9887 1.83301 15.7461V5.24609Z" fill="#465953"/>
<path fill-rule="evenodd" clip-rule="evenodd" d="M1.83301 8.24609C1.83301 7.83188 2.16879 7.49609 2.58301 7.49609H16.083C16.4972 7.49609 16.833 7.83188 16.833 8.24609C16.833 8.66031 16.4972 8.99609 16.083 8.99609H2.58301C2.16879 8.99609 1.83301 8.66031 1.83301 8.24609Z" fill="#465953"/>
<path fill-rule="evenodd" clip-rule="evenodd" d="M12.333 1.49609C12.7472 1.49609 13.083 1.83188 13.083 2.24609V5.24609C13.083 5.66031 12.7472 5.99609 12.333 5.99609C11.9188 5.99609 11.583 5.66031 11.583 5.24609V2.24609C11.583 1.83188 11.9188 1.49609 12.333 1.49609Z" fill="#587169"/>
<path fill-rule="evenodd" clip-rule="evenodd" d="M6.33301 1.49609C6.74722 1.49609 7.08301 1.83188 7.08301 2.24609V5.24609C7.08301 5.66031 6.74722 5.99609 6.33301 5.99609C5.91879 5.99609 5.58301 5.66031 5.58301 5.24609V2.24609C5.58301 1.83188 5.91879 1.49609 6.33301 1.49609Z" fill="#587169"/>
</svg>
