<svg width="24" height="24" viewBox="0 0 24 24" fill="none" xmlns="http://www.w3.org/2000/svg">
<path fill-rule="evenodd" clip-rule="evenodd" d="M1.10579 14.553C1.35278 14.059 1.95345 13.8588 2.44743 14.1058L12.0002 18.8822L21.553 14.1058C22.047 13.8588 22.6477 14.059 22.8946 14.553C23.1416 15.047 22.9414 15.6477 22.4474 15.8946L12.4474 20.8946C12.1659 21.0354 11.8345 21.0354 11.553 20.8946L1.55301 15.8946C1.05903 15.6477 0.858803 15.047 1.10579 14.553Z" fill="#CAD6D1"/>
<path fill-rule="evenodd" clip-rule="evenodd" d="M11.5528 4.10557C11.8343 3.96481 12.1657 3.96481 12.4472 4.10557L22.4472 9.10557C22.786 9.27496 23 9.62123 23 10C23 10.3788 22.786 10.725 22.4472 10.8944L12.4472 15.8944C12.1657 16.0352 11.8343 16.0352 11.5528 15.8944L1.55279 10.8944C1.214 10.725 1 10.3788 1 10C1 9.62123 1.214 9.27496 1.55279 9.10557L11.5528 4.10557ZM4.23607 10L12 13.882L19.7639 10L12 6.11803L4.23607 10Z" fill="#CAD6D1"/>
</svg>
