<svg width="18" height="19" viewBox="0 0 18 19" fill="none" xmlns="http://www.w3.org/2000/svg">
<path fill-rule="evenodd" clip-rule="evenodd" d="M4.45455 4.36126C3.57591 4.36126 2.86364 5.07434 2.86364 5.95396V13.5382C2.86364 14.4179 3.57591 15.1309 4.45455 15.1309H13.5455C14.4241 15.1309 15.1364 14.4179 15.1364 13.5382V5.95396C15.1364 5.07434 14.4241 4.36126 13.5455 4.36126H4.45455ZM1.5 5.95396C1.5 4.32038 2.8228 2.99609 4.45455 2.99609H13.5455C15.1772 2.99609 16.5 4.32038 16.5 5.95396V13.5382C16.5 15.1718 15.1772 16.4961 13.5455 16.4961H4.45455C2.8228 16.4961 1.5 15.1718 1.5 13.5382V5.95396Z" fill="#465953"/>
<path fill-rule="evenodd" clip-rule="evenodd" d="M6.75 7.39265C6.27865 7.39265 5.89655 7.77475 5.89655 8.24609C5.89655 8.71744 6.27865 9.09954 6.75 9.09954C7.22135 9.09954 7.60345 8.71744 7.60345 8.24609C7.60345 7.77475 7.22135 7.39265 6.75 7.39265ZM4.5 8.24609C4.5 7.00345 5.50736 5.99609 6.75 5.99609C7.99264 5.99609 9 7.00345 9 8.24609C9 9.48873 7.99264 10.4961 6.75 10.4961C5.50736 10.4961 4.5 9.48873 4.5 8.24609Z" fill="#465953"/>
<path fill-rule="evenodd" clip-rule="evenodd" d="M10.5 6.74609C10.5 6.33188 10.8181 5.99609 11.2105 5.99609H12.7895C13.1819 5.99609 13.5 6.33188 13.5 6.74609C13.5 7.16031 13.1819 7.49609 12.7895 7.49609H11.2105C10.8181 7.49609 10.5 7.16031 10.5 6.74609Z" fill="#465953"/>
<path fill-rule="evenodd" clip-rule="evenodd" d="M10.5 9.74609C10.5 9.33188 10.8181 8.99609 11.2105 8.99609H12.7895C13.1819 8.99609 13.5 9.33188 13.5 9.74609C13.5 10.1603 13.1819 10.4961 12.7895 10.4961H11.2105C10.8181 10.4961 10.5 10.1603 10.5 9.74609Z" fill="#465953"/>
<path fill-rule="evenodd" clip-rule="evenodd" d="M4.5 12.7461C4.5 12.3319 4.80733 11.9961 5.18644 11.9961H12.8136C13.1927 11.9961 13.5 12.3319 13.5 12.7461C13.5 13.1603 13.1927 13.4961 12.8136 13.4961H5.18644C4.80733 13.4961 4.5 13.1603 4.5 12.7461Z" fill="#465953"/>
</svg>
