<svg width="19" height="19" viewBox="0 0 19 19" fill="none" xmlns="http://www.w3.org/2000/svg">
<path fill-rule="evenodd" clip-rule="evenodd" d="M4.41699 4.49609C4.21808 4.49609 4.02731 4.57511 3.88666 4.71576C3.75055 4.85188 3.67215 5.03492 3.66724 5.22687C3.83973 7.95982 5.00319 10.5364 6.93994 12.4731C8.8767 14.4099 11.4533 15.5734 14.1862 15.7458C14.3782 15.7409 14.5612 15.6625 14.6973 15.5264C14.838 15.3858 14.917 15.195 14.917 14.9961V12.5039L12.2315 11.4297L11.4351 12.757C11.2343 13.0917 10.8103 13.2164 10.4603 13.0437C8.68355 12.1675 7.24559 10.7295 6.36935 8.95283C6.1967 8.60276 6.32142 8.17879 6.65612 7.97797L7.98342 7.1816L6.90922 4.49609H4.41699ZM2.826 3.6551C3.24796 3.23315 3.82026 2.99609 4.41699 2.99609H7.41699C7.72367 2.99609 7.99945 3.18281 8.11335 3.46755L9.61335 7.21755C9.75006 7.55934 9.61852 7.94982 9.30286 8.13921L8.04736 8.89251C8.66526 9.90023 9.51286 10.7478 10.5206 11.3657L11.2739 10.1102C11.4633 9.79457 11.8537 9.66302 12.1955 9.79974L15.9455 11.2997C16.2303 11.4136 16.417 11.6894 16.417 11.9961V14.9961C16.417 15.5928 16.1799 16.1651 15.758 16.5871C15.336 17.009 14.7637 17.2461 14.167 17.2461C14.1518 17.2461 14.1366 17.2456 14.1215 17.2447C11.0131 17.0558 8.08131 15.7358 5.87928 13.5338C3.67726 11.3318 2.35727 8.39999 2.16837 5.29159C2.16745 5.27644 2.16699 5.26127 2.16699 5.24609C2.16699 4.64936 2.40404 4.07706 2.826 3.6551Z" fill="#465953"/>
<path fill-rule="evenodd" clip-rule="evenodd" d="M11.167 5.99609C11.167 5.58188 11.5028 5.24609 11.917 5.24609C12.5137 5.24609 13.086 5.48315 13.508 5.9051C13.9299 6.32706 14.167 6.89936 14.167 7.49609C14.167 7.91031 13.8312 8.24609 13.417 8.24609C13.0028 8.24609 12.667 7.91031 12.667 7.49609C12.667 7.29718 12.588 7.10642 12.4473 6.96576C12.3067 6.82511 12.1159 6.74609 11.917 6.74609C11.5028 6.74609 11.167 6.41031 11.167 5.99609Z" fill="#465953"/>
<path fill-rule="evenodd" clip-rule="evenodd" d="M11.167 2.99609C11.167 2.58188 11.5028 2.24609 11.917 2.24609C13.3094 2.24609 14.6447 2.79922 15.6293 3.78378C16.6139 4.76835 17.167 6.10371 17.167 7.49609C17.167 7.91031 16.8312 8.24609 16.417 8.24609C16.0028 8.24609 15.667 7.91031 15.667 7.49609C15.667 6.50153 15.2719 5.5477 14.5686 4.84444C13.8654 4.14118 12.9116 3.74609 11.917 3.74609C11.5028 3.74609 11.167 3.41031 11.167 2.99609Z" fill="#465953"/>
</svg>
