<svg width="38" height="38" viewBox="0 0 38 38" fill="none" xmlns="http://www.w3.org/2000/svg">
<path fill-rule="evenodd" clip-rule="evenodd" d="M7.06874 24.4852C8.5534 23.0006 10.567 22.1665 12.6667 22.1665H25.3333C27.433 22.1665 29.4466 23.0006 30.9313 24.4852C32.4159 25.9699 33.25 27.9835 33.25 30.0832V33.2498C33.25 34.1243 32.5411 34.8332 31.6667 34.8332C30.7922 34.8332 30.0833 34.1243 30.0833 33.2498V30.0832C30.0833 28.8234 29.5829 27.6152 28.6921 26.7244C27.8013 25.8336 26.5931 25.3332 25.3333 25.3332H12.6667C11.4069 25.3332 10.1987 25.8336 9.30791 26.7244C8.41711 27.6152 7.91667 28.8234 7.91667 30.0832V33.2498C7.91667 34.1243 7.20778 34.8332 6.33333 34.8332C5.45888 34.8332 4.75 34.1243 4.75 33.2498V30.0832C4.75 27.9835 5.58407 25.9699 7.06874 24.4852Z" fill="#587169"/>
<path fill-rule="evenodd" clip-rule="evenodd" d="M18.9997 6.33317C16.3763 6.33317 14.2497 8.45982 14.2497 11.0832C14.2497 13.7065 16.3763 15.8332 18.9997 15.8332C21.623 15.8332 23.7497 13.7065 23.7497 11.0832C23.7497 8.45982 21.623 6.33317 18.9997 6.33317ZM11.083 11.0832C11.083 6.71092 14.6274 3.1665 18.9997 3.1665C23.3719 3.1665 26.9163 6.71092 26.9163 11.0832C26.9163 15.4554 23.3719 18.9998 18.9997 18.9998C14.6274 18.9998 11.083 15.4554 11.083 11.0832Z" fill="#587169"/>
</svg>
